<?xml version="1.0" encoding="UTF-8"?>
<svg id="Layer_1" data-name="Layer 1" xmlns="http://www.w3.org/2000/svg" xmlns:xlink="http://www.w3.org/1999/xlink" viewBox="0 0 193.71 179.08">
  <defs>
    <style>
      .cls-1 {
        fill: url(#linear-gradient-2);
      }

      .cls-2 {
        fill: #fff;
      }

      .cls-3 {
        fill: #7cb518;
      }

      .cls-4 {
        fill: #fb6107;
      }

      .cls-5 {
        fill: #603813;
      }

      .cls-6 {
        fill: #5c8001;
      }

      .cls-7 {
        fill: url(#linear-gradient);
      }

      .cls-8 {
        fill: #754c24;
      }

      .cls-9 {
        fill: none;
        stroke: #000;
        stroke-miterlimit: 10;
        stroke-width: 1.01px;
      }
    </style>
    <linearGradient id="linear-gradient" x1="155.68" y1="165.07" x2="56.13" y2="328.63" gradientUnits="userSpaceOnUse">
      <stop offset=".02" stop-color="#fb6107"/>
      <stop offset="1" stop-color="#000"/>
    </linearGradient>
    <linearGradient id="linear-gradient-2" x1="112.55" y1="-17.43" x2="17.57" y2="138.61" gradientUnits="userSpaceOnUse">
      <stop offset=".02" stop-color="#7cb518"/>
      <stop offset="1" stop-color="#000"/>
    </linearGradient>
    <symbol id="Baked_Orange_No_Red" data-name="Baked Orange No Red" viewBox="0 0 289 267.17">
      <g>
        <path class="cls-9" d="m278,151.67c0,57.44-45.33,104-101.25,104s-101.25-46.56-101.25-104c0-23.8,7.78-45.73,20.87-63.25,18.51-24.78,47.63-40.75,80.38-40.75,44.79,0,82.78,29.87,96.14,71.28,2.67,8.29,4.36,17.05,4.91,26.13.13,2.18.2,4.38.2,6.6Z"/>
        <g>
          <line class="cls-5" x1="149.12" y1=".21" x2="158.07" y2="33.53"/>
          <path class="cls-8" d="m149.12.21c7.14,8.43,10.94,22.43,8.95,33.31-7.17-8.42-10.9-22.43-8.95-33.31h0Z"/>
        </g>
        <path class="cls-7" d="m289,145.67c0,21.21-5.43,41.14-14.99,58.49-20.66,37.56-60.62,63.01-106.51,63.01-67.1,0-121.5-54.4-121.5-121.5,0-27.17,8.92-52.26,23.99-72.49,22.15-29.75,57.58-49.01,97.51-49.01,67.1,0,121.5,54.4,121.5,121.5Z"/>
        <g>
          <path class="cls-6" d="m144.67,22.68s-.02,0-.03,0l.2.64.21.65s.02-.01.03-.01l-.41-1.29Zm-79.54,16.61c.68-1.01,1.54-1.99,2.56-2.95-3.59,1.01-7.18,2.06-10.73,3.16-3.32,1.02-6.6,2.08-9.82,3.18-7.29,2.51-14.52,5.28-21.58,8.62-6.89,3.36-13.58,6.91-19.19,12.4-.98,2.75-1.7,5.89-2.22,9.29-8.18,18.85-2.21,60.59.57,76.85,1.2-1.59,2.55-3.37,4-5.3-.49-2.81-.95-5.64-1.37-8.45-.04-.27-.09-.55-.13-.83,0-.08-.02-.16-.04-.24-.05-.34-.11-.68-.16-1.04-.03-.23-.07-.47-.1-.7-2.24-17.19-5.78-44.27,1.08-60.12,5.45-10.68,24.28-18.97,36.9-24.15h0c1.4-.58,2.73-1.12,3.95-1.62,4.94-1.91,9.93-3.71,14.97-5.41.5-.17,1-.34,1.5-.5,3.22-2.1-2.47-3.72,1.67-5.31-3.44.95,2.22,1.86-1.87,3.12Zm-1.02,8.96c-.07-.45-.17-.88-.29-1.29-.44-1.5-.48-2.94-.17-4.33-6.08,4.46-9.45,10.06-7.67,17.13,2.7,16.82-28.46,59.81-46.02,83.13-.01.01-.01.02-.01.02-.38.51-.76,1.01-1.12,1.5-.04.05-.07.09-.11.13.41,2.31.83,4.62,1.29,6.9,12.3-15.54,48.45-62.94,51.14-86.4v-.02c2.53-6.64,3.74-12.45,2.96-16.77ZM5.49,154.18c.28,1.5.45,2.33.45,2.33,0,0,.53-.65,1.49-1.84l-1.94-.49Z"/>
          <path class="cls-6" d="m63.65,42.63c-.31,1.39-.27,2.83.17,4.33.12.41.22.84.29,1.29-3.06,3.05-4.42,6.4-3.33,10.09.56,1.9.66,4.15.37,6.68v.02c-2.69,23.46-38.84,70.86-51.14,86.4-1.04,1.32-1.91,2.4-2.58,3.23-.96,1.19-1.49,1.84-1.49,1.84,0,0-.17-.83-.45-2.33-.2-1.1-.46-2.57-.77-4.34-2.78-16.26-8.75-58-.57-76.85.43-.99.9-1.92,1.41-2.78,6.09-10.22,26.17-19.43,45.44-26.25,4.84-1.71,9.63-3.28,14.13-4.67,4.09-1.26-2.57-4.17.87-5.12-4.14,1.59,2.55,5.21-.67,7.31-.58.37-1.14.76-1.68,1.15Z"/>
        </g>
        <g>
          <g>
            <path class="cls-3" d="m149.72,0c-9.06,2.63-18.8,4.45-27.9,6.88-15.76,4.26-32.27,8.16-46.15,16.85-3.68,2.62-8.11,6.03-6.24,10.98,1.05,4.07.47,8.53-.4,12.39-.58,2.53-1.34,4.95-2.19,7.32,0,0,.26-1.41.26-1.41v.02s.01.65.01.65l-.27.75c-2.84,7.88-6.59,15.15-10.58,22.24-13.73,24.09-30.5,46.36-48.06,67.75-1.19-5.61-2.8-13.85-3.74-19.36C1.41,105.08-5.27,59.45,8.52,41.93c10.75-12.38,30.71-19.25,45.73-24.52,13.86-4.57,27.9-8.19,42.18-11.14,5.94-1.66,14.26-3.36,21.07-4.23,7.11-.91,14.59-1.43,21.52-1.64,2.84-.12,7.84-.09,10.7-.41h0Zm0,0c-2.85.68-7.63,1.14-10.6,1.57-6.86.94-14.2,2.03-21.09,3.57-7,1.47-13.87,3.38-20.54,5.74-20.57,5.79-41.15,12.42-60.38,21.68-6.48,3.24-13,6.86-18.37,11.59-1.36,1.3-2.72,2.65-3.72,4.22-9.61,15.56-3.34,57.13-1,73.43.25,1.26,1.13,6.59,1.38,7.9.15.82.29,1.68.44,2.44,0,0-8.74-2.14-8.74-2.14,17.24-21.55,34.13-43.69,47.39-67.94,0,0,2.63-5.18,2.63-5.18l2.33-5.26-.26,1.4s.02-.81.02-.83c1.84-4.62,3.7-9.63,3.44-14.54-.09-1.31-.35-1.74-.6-3.34-.38-2.47.11-5.09,1.26-7.3C73.75,8.25,129.24,3.26,149.72,0h0Z"/>
            <path class="cls-3" d="m149.72,0c-6.56,2.01-63.85,9.35-80.03,24.34-1.02.96-1.88,1.94-2.56,2.95-.58.87-1.02,1.77-1.3,2.69-.07.22-.13.43-.18.65-.31,1.39-.27,2.83.17,4.33.12.41.22.84.29,1.29.78,4.32-.43,10.13-2.96,16.77v.02c-10.8,28.38-45.5,71.85-51.34,79.06-.55.67-.84,1.03-.84,1.03,0,0-.05-.25-.14-.72-.24-1.28-.8-4.23-1.48-8.32-.04-.27-.09-.55-.13-.83,0-.08-.02-.16-.04-.24-.05-.34-.11-.68-.16-1.04-2.38-15.03-5.75-42.11-2.87-60.99.52-3.4,1.24-6.54,2.22-9.29.63-1.8,1.37-3.43,2.22-4.87C23.31,25.49,96.96,8.58,96.96,8.58c15.72-5.03,31.73-6.74,42.05-7.58.02,0,.04,0,.06,0C144.48.54,148.32.33,149.72,0Z"/>
          </g>
          <path class="cls-1" d="m11.5,134.67c1.04-8.73,1.59-17.5,2.25-26.27.71-8.76,1.37-17.55,3.13-26.21.89-4.32,2.03-8.61,3.71-12.71,1.67-4.1,3.81-8,6.29-11.67,4.95-7.35,11.19-13.7,17.79-19.53,3.33-2.89,6.7-5.71,10.21-8.4,3.52-2.66,7.17-5.14,10.95-7.42,7.54-4.52,15.6-8.43,24.17-10.61,8.5-2.27,16.95-4.69,25.59-6.44,4.31-.89,8.65-1.63,12.99-2.29,2.17-.37,4.37-.52,6.49-1.08,1.06-.28,2.1-.64,3.17-.9,1.07-.27,2.16-.42,3.26-.47-1.1.08-2.18.25-3.24.55-1.06.28-2.09.67-3.15.97-2.13.62-4.33.81-6.48,1.22-4.33.73-8.64,1.59-12.93,2.52-8.59,1.83-17.02,4.36-25.48,6.68-8.48,2.26-16.42,6.09-23.91,10.63-3.74,2.27-7.36,4.75-10.84,7.4-3.46,2.67-6.83,5.51-10.13,8.39-6.58,5.77-12.78,12.05-17.7,19.29-2.45,3.61-4.58,7.45-6.24,11.48-1.66,4.03-2.83,8.27-3.76,12.54-1.84,8.57-2.58,17.35-3.4,26.09-.81,8.75-1.53,17.52-2.73,26.23Z"/>
        </g>
        <path class="cls-4" d="m289,145.67c0,21.21-5.43,41.14-14.99,58.49-22.15,29.75-57.58,49.01-97.51,49.01-67.1,0-121.5-54.4-121.5-121.5,0-21.21,5.43-41.14,14.99-58.49,22.15-29.75,57.58-49.01,97.51-49.01,67.1,0,121.5,54.4,121.5,121.5Z"/>
        <ellipse class="cls-2" cx="211.5" cy="58.17" rx="8.5" ry="15" transform="translate(46.54 202.75) rotate(-56.61)"/>
      </g>
    </symbol>
  </defs>
  <use width="289" height="267.17" transform="scale(.67)" xlink:href="#Baked_Orange_No_Red"/>
</svg>