<?xml version="1.0" encoding="UTF-8" standalone="no"?>
<svg
   viewBox="0 0 24 24"
   fill="none"
   version="1.1"
   id="svg1"
   sodipodi:docname="settings-cog-line.svg"
   inkscape:export-filename="settings-cog-line.png"
   inkscape:export-xdpi="96"
   inkscape:export-ydpi="96"
   inkscape:version="1.3 (0e150ed6c4, 2023-07-21)"
   xmlns:inkscape="http://www.inkscape.org/namespaces/inkscape"
   xmlns:sodipodi="http://sodipodi.sourceforge.net/DTD/sodipodi-0.dtd"
   xmlns="http://www.w3.org/2000/svg"
   xmlns:svg="http://www.w3.org/2000/svg">
  <defs
     id="defs1" />
  <sodipodi:namedview
     id="namedview1"
     pagecolor="#ffffff"
     bordercolor="#000000"
     borderopacity="0.25"
     inkscape:showpageshadow="2"
     inkscape:pageopacity="0.0"
     inkscape:pagecheckerboard="0"
     inkscape:deskcolor="#d1d1d1"
     inkscape:zoom="34.208333"
     inkscape:cx="12"
     inkscape:cy="12"
     inkscape:window-width="1920"
     inkscape:window-height="1017"
     inkscape:window-x="-8"
     inkscape:window-y="-8"
     inkscape:window-maximized="1"
     inkscape:current-layer="svg1" />
  <path
     stroke="currentColor"
     stroke-linecap="round"
     stroke-linejoin="round"
     stroke-width="2"
     d="M14 21h-4l-.551-2.48a6.991 6.991 0 0 1-1.819-1.05l-2.424.763-2-3.464 1.872-1.718a7.055 7.055 0 0 1 0-2.1L3.206 9.232l2-3.464 2.424.763A6.992 6.992 0 0 1 9.45 5.48L10 3h4l.551 2.48a6.992 6.992 0 0 1 1.819 1.05l2.424-.763 2 3.464-1.872 1.718a7.05 7.05 0 0 1 0 2.1l1.872 1.718-2 3.464-2.424-.763a6.99 6.99 0 0 1-1.819 1.052L14 21z"
     id="path1"
     style="stroke:#ffffff;stroke-opacity:1" />
  <circle
     cx="12"
     cy="12"
     r="3"
     stroke="currentColor"
     stroke-width="2"
     id="circle1"
     style="stroke:#fefefe;stroke-opacity:1" />
</svg>
